# xmcd
#
# Track frame offsets:
#	150
#	17179
#	32104
#	49723
#	64799
#	76879
#	95219
#	113097
#	132959
#	150363
#	163494
#	181634
#	204766
#	223075
#	240555
#	261132
#	282356
#	305506
#
# Disc length: 4320 seconds
#
# Revision: 1
# Processed by: cddbd v1.5.2PL0 Copyright (c) Steve Scherf et al.
# Submitted via: audiograbber 1.83.01
#
DISCID=f610de12
DTITLE=Alan Jackson - 34 Number Ones [CD 2)
DYEAR=2010
DGENRE=Country
TTITLE0=As She's Walking Away (Feat. Zac Brown)
TTITLE1=Look At Me
TTITLE2=I'll Try
TTITLE3=Home
TTITLE4=Little Bitty
TTITLE5=Who's Cheatin' Who
TTITLE6=There Goes
TTITLE7=Between The Devil And Me
TTITLE8=Right On The Money
TTITLE9=It Must Be Love
TTITLE10=Where I Come From
TTITLE11=Where Were You (When The World Stopped Turning) 
TTITLE12=Drive (For Daddy Gene)
TTITLE13=It's Five O'Clock Somewhere (Ft. Jimmy Buffet)
TTITLE14=Remember When
TTITLE15=Small Town Southern Man
TTITLE16=Good Time
TTITLE17=Country Boy
EXTD=
EXTT0=
EXTT1=
EXTT2=
EXTT3=
EXTT4=
EXTT5=
EXTT6=
EXTT7=
EXTT8=
EXTT9=
EXTT10=
EXTT11=
EXTT12=
EXTT13=
EXTT14=
EXTT15=
EXTT16=
EXTT17=
PLAYORDER=
